<mxfile host="app.diagrams.net" modified="2023-07-28T13:26:19.733Z" agent="Mozilla/5.0 (Windows NT 10.0; WOW64) AppleWebKit/537.36 (KHTML, like Gecko) Chrome/105.0.0.0 Safari/537.36" etag="m7M9okeYwcbCFp-vdriR" version="21.6.5" type="github">
  <diagram name="第 1 页" id="iI3ovuWfcA6Ct2PmyeC-">
    <mxGraphModel dx="1185" dy="642" grid="0" gridSize="10" guides="1" tooltips="1" connect="1" arrows="1" fold="1" page="1" pageScale="1" pageWidth="3300" pageHeight="4681" math="0" shadow="0">
      <root>
        <mxCell id="0" />
        <mxCell id="1" parent="0" />
        <mxCell id="QU-xv5KzZatvjX5Uf1x0-1" value=":企微cgi" style="shape=umlLifeline;perimeter=lifelinePerimeter;whiteSpace=wrap;html=1;container=1;dropTarget=0;collapsible=0;recursiveResize=0;outlineConnect=0;portConstraint=eastwest;newEdgeStyle={&quot;edgeStyle&quot;:&quot;elbowEdgeStyle&quot;,&quot;elbow&quot;:&quot;vertical&quot;,&quot;curved&quot;:0,&quot;rounded&quot;:0};" vertex="1" parent="1">
          <mxGeometry x="620" y="270" width="100" height="300" as="geometry" />
        </mxCell>
        <mxCell id="QU-xv5KzZatvjX5Uf1x0-2" value=":企微&lt;br&gt;svr" style="shape=umlLifeline;perimeter=lifelinePerimeter;whiteSpace=wrap;html=1;container=1;dropTarget=0;collapsible=0;recursiveResize=0;outlineConnect=0;portConstraint=eastwest;newEdgeStyle={&quot;edgeStyle&quot;:&quot;elbowEdgeStyle&quot;,&quot;elbow&quot;:&quot;vertical&quot;,&quot;curved&quot;:0,&quot;rounded&quot;:0};" vertex="1" parent="1">
          <mxGeometry x="770" y="270" width="100" height="300" as="geometry" />
        </mxCell>
        <mxCell id="QU-xv5KzZatvjX5Uf1x0-3" value=":企业mq" style="shape=umlLifeline;perimeter=lifelinePerimeter;whiteSpace=wrap;html=1;container=1;dropTarget=0;collapsible=0;recursiveResize=0;outlineConnect=0;portConstraint=eastwest;newEdgeStyle={&quot;edgeStyle&quot;:&quot;elbowEdgeStyle&quot;,&quot;elbow&quot;:&quot;vertical&quot;,&quot;curved&quot;:0,&quot;rounded&quot;:0};" vertex="1" parent="1">
          <mxGeometry x="1050" y="270" width="100" height="300" as="geometry" />
        </mxCell>
        <mxCell id="QU-xv5KzZatvjX5Uf1x0-6" value="Actor" style="shape=umlActor;verticalLabelPosition=bottom;verticalAlign=top;html=1;" vertex="1" parent="1">
          <mxGeometry x="520" y="380" width="30" height="60" as="geometry" />
        </mxCell>
        <mxCell id="QU-xv5KzZatvjX5Uf1x0-7" value="1.上传图片" style="html=1;verticalAlign=bottom;endArrow=block;edgeStyle=elbowEdgeStyle;elbow=vertical;curved=0;rounded=0;" edge="1" parent="1">
          <mxGeometry width="80" relative="1" as="geometry">
            <mxPoint x="590" y="360" as="sourcePoint" />
            <mxPoint x="670" y="360" as="targetPoint" />
          </mxGeometry>
        </mxCell>
        <mxCell id="QU-xv5KzZatvjX5Uf1x0-8" value="" style="html=1;verticalAlign=bottom;endArrow=block;edgeStyle=elbowEdgeStyle;elbow=vertical;curved=0;rounded=0;" edge="1" parent="1" target="QU-xv5KzZatvjX5Uf1x0-2">
          <mxGeometry width="80" relative="1" as="geometry">
            <mxPoint x="670" y="370" as="sourcePoint" />
            <mxPoint x="750" y="370" as="targetPoint" />
          </mxGeometry>
        </mxCell>
        <mxCell id="QU-xv5KzZatvjX5Uf1x0-9" value=":腾讯云" style="shape=umlLifeline;perimeter=lifelinePerimeter;whiteSpace=wrap;html=1;container=1;dropTarget=0;collapsible=0;recursiveResize=0;outlineConnect=0;portConstraint=eastwest;newEdgeStyle={&quot;edgeStyle&quot;:&quot;elbowEdgeStyle&quot;,&quot;elbow&quot;:&quot;vertical&quot;,&quot;curved&quot;:0,&quot;rounded&quot;:0};" vertex="1" parent="1">
          <mxGeometry x="910" y="270" width="100" height="300" as="geometry" />
        </mxCell>
        <mxCell id="QU-xv5KzZatvjX5Uf1x0-10" value="2.图片存到腾讯云" style="html=1;verticalAlign=bottom;endArrow=block;edgeStyle=elbowEdgeStyle;elbow=vertical;curved=0;rounded=0;" edge="1" parent="1" target="QU-xv5KzZatvjX5Uf1x0-9">
          <mxGeometry width="80" relative="1" as="geometry">
            <mxPoint x="820" y="379.71" as="sourcePoint" />
            <mxPoint x="900" y="379.71" as="targetPoint" />
          </mxGeometry>
        </mxCell>
        <mxCell id="QU-xv5KzZatvjX5Uf1x0-11" value="return" style="html=1;verticalAlign=bottom;endArrow=open;dashed=1;endSize=8;edgeStyle=elbowEdgeStyle;elbow=vertical;curved=0;rounded=0;" edge="1" parent="1" source="QU-xv5KzZatvjX5Uf1x0-9">
          <mxGeometry relative="1" as="geometry">
            <mxPoint x="900" y="400" as="sourcePoint" />
            <mxPoint x="820" y="400" as="targetPoint" />
          </mxGeometry>
        </mxCell>
        <mxCell id="QU-xv5KzZatvjX5Uf1x0-12" value="3. 旁路MQ处理" style="html=1;verticalAlign=bottom;endArrow=block;edgeStyle=elbowEdgeStyle;elbow=vertical;curved=0;rounded=0;" edge="1" parent="1" target="QU-xv5KzZatvjX5Uf1x0-3">
          <mxGeometry x="-0.5707" width="80" relative="1" as="geometry">
            <mxPoint x="820" y="430" as="sourcePoint" />
            <mxPoint x="900" y="430" as="targetPoint" />
            <mxPoint as="offset" />
          </mxGeometry>
        </mxCell>
        <mxCell id="QU-xv5KzZatvjX5Uf1x0-13" value="return" style="html=1;verticalAlign=bottom;endArrow=open;dashed=1;endSize=8;edgeStyle=elbowEdgeStyle;elbow=vertical;curved=0;rounded=0;" edge="1" parent="1" source="QU-xv5KzZatvjX5Uf1x0-3">
          <mxGeometry relative="1" as="geometry">
            <mxPoint x="900" y="450" as="sourcePoint" />
            <mxPoint x="820" y="450" as="targetPoint" />
          </mxGeometry>
        </mxCell>
        <mxCell id="QU-xv5KzZatvjX5Uf1x0-14" value="4.图片检测处理" style="html=1;verticalAlign=bottom;endArrow=block;edgeStyle=elbowEdgeStyle;elbow=vertical;curved=0;rounded=0;entryX=0.5;entryY=0.7;entryDx=0;entryDy=0;entryPerimeter=0;" edge="1" parent="1" target="QU-xv5KzZatvjX5Uf1x0-9">
          <mxGeometry width="80" relative="1" as="geometry">
            <mxPoint x="1100" y="480" as="sourcePoint" />
            <mxPoint x="970" y="480" as="targetPoint" />
          </mxGeometry>
        </mxCell>
        <mxCell id="QU-xv5KzZatvjX5Uf1x0-15" value="return" style="html=1;verticalAlign=bottom;endArrow=open;dashed=1;endSize=8;edgeStyle=elbowEdgeStyle;elbow=vertical;curved=0;rounded=0;" edge="1" parent="1" target="QU-xv5KzZatvjX5Uf1x0-3">
          <mxGeometry relative="1" as="geometry">
            <mxPoint x="960" y="500" as="sourcePoint" />
            <mxPoint x="1060" y="500" as="targetPoint" />
          </mxGeometry>
        </mxCell>
        <mxCell id="QU-xv5KzZatvjX5Uf1x0-16" value="return" style="html=1;verticalAlign=bottom;endArrow=open;dashed=1;endSize=8;edgeStyle=elbowEdgeStyle;elbow=vertical;curved=0;rounded=0;" edge="1" parent="1" target="QU-xv5KzZatvjX5Uf1x0-1">
          <mxGeometry relative="1" as="geometry">
            <mxPoint x="820" y="470" as="sourcePoint" />
            <mxPoint x="740" y="470" as="targetPoint" />
          </mxGeometry>
        </mxCell>
        <mxCell id="QU-xv5KzZatvjX5Uf1x0-17" value="return" style="html=1;verticalAlign=bottom;endArrow=open;dashed=1;endSize=8;edgeStyle=elbowEdgeStyle;elbow=vertical;curved=0;rounded=0;" edge="1" parent="1">
          <mxGeometry relative="1" as="geometry">
            <mxPoint x="670" y="480" as="sourcePoint" />
            <mxPoint x="590" y="480" as="targetPoint" />
          </mxGeometry>
        </mxCell>
        <mxCell id="QU-xv5KzZatvjX5Uf1x0-18" value="上传图片" style="text;html=1;align=center;verticalAlign=middle;resizable=0;points=[];autosize=1;strokeColor=none;fillColor=none;" vertex="1" parent="1">
          <mxGeometry x="705" y="348" width="70" height="30" as="geometry" />
        </mxCell>
        <mxCell id="QU-xv5KzZatvjX5Uf1x0-22" value="" style="edgeStyle=orthogonalEdgeStyle;rounded=0;orthogonalLoop=1;jettySize=auto;html=1;" edge="1" parent="1" source="QU-xv5KzZatvjX5Uf1x0-20" target="QU-xv5KzZatvjX5Uf1x0-21">
          <mxGeometry relative="1" as="geometry" />
        </mxCell>
        <mxCell id="QU-xv5KzZatvjX5Uf1x0-28" value="" style="edgeStyle=orthogonalEdgeStyle;rounded=0;orthogonalLoop=1;jettySize=auto;html=1;" edge="1" parent="1" source="QU-xv5KzZatvjX5Uf1x0-20" target="QU-xv5KzZatvjX5Uf1x0-27">
          <mxGeometry relative="1" as="geometry" />
        </mxCell>
        <mxCell id="QU-xv5KzZatvjX5Uf1x0-20" value="是否是bmp" style="strokeWidth=2;html=1;shape=mxgraph.flowchart.decision;whiteSpace=wrap;" vertex="1" parent="1">
          <mxGeometry x="735" y="836.88" width="110" height="70" as="geometry" />
        </mxCell>
        <mxCell id="QU-xv5KzZatvjX5Uf1x0-21" value="通过原图得到jpg图片，覆盖原图" style="whiteSpace=wrap;html=1;strokeWidth=2;" vertex="1" parent="1">
          <mxGeometry x="910" y="843.76" width="120" height="56.25" as="geometry" />
        </mxCell>
        <mxCell id="QU-xv5KzZatvjX5Uf1x0-23" value="是" style="text;html=1;align=center;verticalAlign=middle;resizable=0;points=[];autosize=1;strokeColor=none;fillColor=none;" vertex="1" parent="1">
          <mxGeometry x="855" y="843.76" width="40" height="30" as="geometry" />
        </mxCell>
        <mxCell id="QU-xv5KzZatvjX5Uf1x0-30" value="" style="edgeStyle=orthogonalEdgeStyle;rounded=0;orthogonalLoop=1;jettySize=auto;html=1;" edge="1" parent="1" source="QU-xv5KzZatvjX5Uf1x0-27" target="QU-xv5KzZatvjX5Uf1x0-29">
          <mxGeometry relative="1" as="geometry" />
        </mxCell>
        <mxCell id="QU-xv5KzZatvjX5Uf1x0-27" value="获取去除元信息的图片" style="whiteSpace=wrap;html=1;strokeWidth=2;" vertex="1" parent="1">
          <mxGeometry x="725" y="960" width="130" height="40" as="geometry" />
        </mxCell>
        <mxCell id="QU-xv5KzZatvjX5Uf1x0-33" value="" style="edgeStyle=orthogonalEdgeStyle;rounded=0;orthogonalLoop=1;jettySize=auto;html=1;" edge="1" parent="1" source="QU-xv5KzZatvjX5Uf1x0-29" target="QU-xv5KzZatvjX5Uf1x0-32">
          <mxGeometry relative="1" as="geometry" />
        </mxCell>
        <mxCell id="QU-xv5KzZatvjX5Uf1x0-35" value="" style="edgeStyle=orthogonalEdgeStyle;rounded=0;orthogonalLoop=1;jettySize=auto;html=1;" edge="1" parent="1" source="QU-xv5KzZatvjX5Uf1x0-29" target="QU-xv5KzZatvjX5Uf1x0-34">
          <mxGeometry relative="1" as="geometry" />
        </mxCell>
        <mxCell id="QU-xv5KzZatvjX5Uf1x0-29" value="如果去除元信息的图片大小远小于原图" style="rhombus;whiteSpace=wrap;html=1;strokeWidth=2;" vertex="1" parent="1">
          <mxGeometry x="725" y="1050" width="130" height="80" as="geometry" />
        </mxCell>
        <mxCell id="QU-xv5KzZatvjX5Uf1x0-32" value="用去除元信息的图片覆盖原图" style="whiteSpace=wrap;html=1;strokeWidth=2;" vertex="1" parent="1">
          <mxGeometry x="920" y="1060" width="120" height="60" as="geometry" />
        </mxCell>
        <mxCell id="QU-xv5KzZatvjX5Uf1x0-34" value="不处理" style="whiteSpace=wrap;html=1;strokeWidth=2;" vertex="1" parent="1">
          <mxGeometry x="755" y="1170" width="70" height="30" as="geometry" />
        </mxCell>
        <mxCell id="QU-xv5KzZatvjX5Uf1x0-36" value="否" style="text;html=1;align=center;verticalAlign=middle;resizable=0;points=[];autosize=1;strokeColor=none;fillColor=none;" vertex="1" parent="1">
          <mxGeometry x="780" y="918" width="40" height="30" as="geometry" />
        </mxCell>
        <mxCell id="QU-xv5KzZatvjX5Uf1x0-37" value="否" style="text;html=1;align=center;verticalAlign=middle;resizable=0;points=[];autosize=1;strokeColor=none;fillColor=none;" vertex="1" parent="1">
          <mxGeometry x="780" y="1010" width="40" height="30" as="geometry" />
        </mxCell>
        <mxCell id="QU-xv5KzZatvjX5Uf1x0-38" value="否" style="text;html=1;align=center;verticalAlign=middle;resizable=0;points=[];autosize=1;strokeColor=none;fillColor=none;" vertex="1" parent="1">
          <mxGeometry x="780" y="1130" width="40" height="30" as="geometry" />
        </mxCell>
        <mxCell id="QU-xv5KzZatvjX5Uf1x0-39" value="是" style="text;html=1;align=center;verticalAlign=middle;resizable=0;points=[];autosize=1;strokeColor=none;fillColor=none;" vertex="1" parent="1">
          <mxGeometry x="865" y="1060" width="40" height="30" as="geometry" />
        </mxCell>
        <mxCell id="QU-xv5KzZatvjX5Uf1x0-41" style="edgeStyle=orthogonalEdgeStyle;rounded=0;orthogonalLoop=1;jettySize=auto;html=1;entryX=0.5;entryY=0;entryDx=0;entryDy=0;entryPerimeter=0;" edge="1" parent="1" source="QU-xv5KzZatvjX5Uf1x0-40" target="QU-xv5KzZatvjX5Uf1x0-20">
          <mxGeometry relative="1" as="geometry" />
        </mxCell>
        <mxCell id="QU-xv5KzZatvjX5Uf1x0-40" value="获取图片信息，包括图片格式" style="whiteSpace=wrap;html=1;strokeWidth=2;" vertex="1" parent="1">
          <mxGeometry x="725" y="770" width="130" height="40" as="geometry" />
        </mxCell>
      </root>
    </mxGraphModel>
  </diagram>
</mxfile>
